<svg xmlns="http://www.w3.org/2000/svg" xmlns:xlink="http://www.w3.org/1999/xlink" width="500" zoomAndPan="magnify" viewBox="0 0 375 374.999991" height="500" preserveAspectRatio="xMidYMid meet" version="1.0"><path fill="#5271ff" d="M 230.074219 184.058594 C 230.074219 136.75 238.773438 95.296875 253.214844 65.71875 C 168.328125 114.496094 93.894531 117.609375 56.546875 119.859375 C 35.546875 121.125 16.210938 134.792969 6.15625 156.191406 C -2.039062 173.636719 -1.992188 194.199219 5.925781 211.769531 C 15.90625 233.914062 35.355469 248.433594 56.542969 248.25 C 60.054688 248.222656 64.253906 248.273438 68.925781 248.433594 C 61.359375 282.480469 80.863281 318.5 115.9375 333.699219 C 126.65625 338.347656 137.960938 340.679688 149.164062 340.679688 C 157.894531 340.679688 166.570312 339.261719 174.855469 336.402344 C 194.015625 329.792969 208.828125 316.320312 216.5625 298.476562 C 218.363281 294.324219 219.582031 289.976562 220.515625 285.566406 C 231.253906 290.527344 242.1875 296.113281 253.246094 302.453125 C 238.789062 272.871094 230.074219 231.398438 230.074219 184.058594 Z M 202.226562 292.265625 C 196.257812 306.035156 184.730469 316.464844 169.761719 321.628906 C 154.542969 326.878906 137.628906 326.070312 122.148438 319.355469 C 93.125 306.78125 77.242188 276.855469 84.753906 249.371094 C 114.578125 251.789062 157.660156 259.050781 205.925781 279.148438 C 205.269531 283.660156 204.046875 288.070312 202.226562 292.265625 Z M 202.226562 292.265625 " fill-opacity="1" fill-rule="nonzero"/><path fill="#5271ff" d="M 310.351562 34.320312 C 284.511719 34.320312 262.277344 69.515625 251.925781 120.261719 C 286.433594 121.085938 314.265625 149.355469 314.265625 184.058594 C 314.265625 218.757812 286.429688 247.023438 251.925781 247.84375 C 262.273438 298.59375 284.507812 333.792969 310.351562 333.792969 C 346.054688 333.792969 375 266.75 375 184.054688 C 375 101.359375 346.054688 34.320312 310.351562 34.320312 Z M 310.351562 34.320312 " fill-opacity="1" fill-rule="nonzero"/></svg>