<svg xmlns="http://www.w3.org/2000/svg" xmlns:xlink="http://www.w3.org/1999/xlink" width="500" zoomAndPan="magnify" viewBox="0 0 375 374.999991" height="500" preserveAspectRatio="xMidYMid meet" version="1.0"><defs><g/><clipPath id="f8824b8ccb"><path d="M 187.5 0 C 83.945312 0 0 83.945312 0 187.5 C 0 291.054688 83.945312 375 187.5 375 C 291.054688 375 375 291.054688 375 187.5 C 375 83.945312 291.054688 0 187.5 0 Z M 187.5 0 " clip-rule="nonzero"/></clipPath></defs><g clip-path="url(#f8824b8ccb)"><rect x="-37.5" width="450" fill="#ff3131" y="-37.499999" height="449.999989" fill-opacity="1"/></g><g fill="#99aab5" fill-opacity="1"><g transform="translate(60.9375, 326.249979)"><g><path d="M 179.25 0 C 172 -14.5 164.0625 -29.1875 155.4375 -44.0625 C 146.8125 -58.9375 136.875 -74.125 125.625 -89.625 C 122.125 -85.125 117.6875 -78.875 112.3125 -70.875 C 106.9375 -62.875 101.5625 -54.375 96.1875 -45.375 C 90.8125 -36.375 85.75 -27.75 81 -19.5 C 76.25 -11.25 72.75 -4.75 70.5 0 L 3.75 0 C 14.75 -20.25 27.5625 -41.5 42.1875 -63.75 C 56.8125 -86 73.125 -109.625 91.125 -134.625 L 7.5 -259.875 L 78.375 -259.875 L 129 -178.875 L 178.5 -259.875 L 245.25 -259.875 L 162.75 -133.875 C 183.75 -106.625 201.375 -81.4375 215.625 -58.3125 C 229.875 -35.1875 241.125 -15.75 249.375 0 Z M 179.25 0 "/></g></g></g></svg>